<svg viewBox="0 0 213 80" class="logo-websai">
  <title>WebSAI 2022</title>
  <g class="icon">
    <path
      d="M115.464 71.1118C115.464 73.5678 113.475 75.5598 111.022 75.5598H102.146C99.6933 75.5598 97.704 73.5678 97.704 71.1118H48.8896C48.8896 76.0238 52.8603 79.9998 57.7657 79.9998H155.41C160.316 79.9998 164.287 76.0238 164.287 71.1118H115.464Z" />
    <path
      d="M57.7662 15.016V6.664C57.7662 5.44 58.7569 4.44 59.9873 4.44H153.198C154.42 4.44 155.419 5.432 155.419 6.664V15.016H159.861V4.448C159.861 1.992 157.872 0 155.419 0H57.7662C55.3135 0 53.3242 1.992 53.3242 4.448V15.024H57.7662V15.016Z" />
    <path d="M159.853 57.7041H155.411V66.6641H159.853V57.7041Z" />
    <path d="M57.7662 57.7041H53.3242V66.6641H57.7662V57.7041Z" />
  </g>
  <g class="title">
    <path
      d="M4.05381 29.04C4.02186 28.448 3.74223 28.2 3.18298 28.2H2.41602L3.18298 24.312H6.29081C7.86469 24.312 8.70356 24.768 8.77547 26.344L9.33471 41.152C9.36667 42.552 9.23085 43.776 9.23085 43.776H9.30276C9.30276 43.776 9.65428 42.584 10.3174 41.152L18.1149 24.384H21.9977L23.0123 41.152C23.0842 42.584 22.9804 43.776 22.9804 43.776H23.0523C23.0523 43.776 23.3638 42.552 23.963 41.152L30.2905 26.344C30.9536 24.736 32.0402 24.312 33.4703 24.312H36.7219L35.9869 28.2H35.2199C34.7326 28.2 34.3091 28.376 34.0295 28.968L24.9537 49.168H19.6409L18.6262 35.096C18.4824 33.52 18.5943 32.016 18.5943 32.016H18.5224C18.5224 32.016 18.035 33.488 17.2601 35.096L10.5491 49.168H5.27617L4.05381 29.04Z" />
    <path
      d="M44.1039 30.896C48.8575 30.896 51.1984 33.696 51.1984 37.648C51.1984 39.192 50.5353 41.008 50.5353 41.008H38.3037C38.3037 41.008 38.2318 41.392 38.2318 41.776C38.2318 44.16 39.8776 45.84 42.6738 45.84C45.5739 45.84 48.1944 43.88 48.1944 43.88L49.3848 47.272C49.3848 47.272 46.3409 49.584 42.3942 49.584C36.8337 49.584 33.7578 46.256 33.7578 41.88C33.7578 35.864 38.1679 30.896 44.1039 30.896ZM46.7963 37.928C46.7963 37.928 46.8282 37.616 46.8282 37.264C46.8282 35.376 45.6778 34.32 44 34.32C41.7311 34.32 39.9415 35.824 39.0707 37.928H46.7963Z" />
    <path
      d="M56.3752 29.392C56.4072 29.144 56.4791 28.864 56.4791 28.624C56.4791 28.272 56.2714 28.096 55.8479 28.096H54.4498L55.1848 24.312H59.2753C60.7054 24.312 61.3765 24.84 61.3765 25.992C61.3765 26.272 61.3046 26.656 61.2327 27.04L60.29 31.872C60.1142 32.744 59.8745 33.48 59.8745 33.48H59.9464C61.1688 31.936 63.3019 30.888 65.4031 30.888C69.6694 30.888 72.146 33.832 72.146 38.416C72.146 45.032 67.2886 49.584 62.4311 49.584C60.2261 49.584 58.0929 48.672 57.1502 46.64H57.0783C57.0783 46.64 57.0783 47.232 56.9345 47.904L56.6868 49.168H52.5244L56.3752 29.392ZM61.8958 45.84C64.5562 45.84 67.6321 43.216 67.6321 38.736C67.6321 36.248 66.3059 34.712 64.1008 34.712C61.1608 34.712 58.3646 37.896 58.3646 41.888C58.3725 44.056 59.4511 45.84 61.8958 45.84Z" />
    <path
      d="M75.4298 42.6883C75.4298 42.6883 77.459 45.4563 81.166 45.4563C83.8265 45.4563 85.5042 44.0243 85.5042 42.1683C85.5042 38.0003 75.7493 38.7363 75.7493 31.4963C75.7493 26.8403 79.9117 23.9043 84.7692 23.9043C88.0528 23.9043 91.9356 25.2723 91.9356 28.0723C91.9356 28.3843 91.9036 28.9123 91.7918 29.2963L91.4402 31.1203H87.3817L87.5255 30.4163C87.5974 30.2083 87.6294 29.9283 87.6294 29.7123C87.6294 28.5923 86.2632 28.0643 84.6254 28.0643C81.8611 28.0643 80.3591 29.4963 80.3591 31.1763C80.3591 35.2003 90.146 34.1843 90.146 41.6403C90.146 46.0883 86.6467 49.5843 81.0941 49.5843C75.3579 49.5843 72.6016 45.8003 72.6016 45.8003L75.4298 42.6883Z" />
    <path
      d="M91.2243 45.2803H91.8874C92.4147 45.2803 92.6543 45.1363 93.0059 44.5123L104.295 24.3203H109.08L112.508 44.5523C112.612 45.1443 112.787 45.2883 113.347 45.2883H114.01L113.243 49.1763H110.518C108.873 49.1763 108.353 48.7203 108.106 47.1443L107.403 42.8003H99.0138L96.601 47.1443C95.7941 48.6883 95.171 49.1763 93.5971 49.1763H90.4893L91.2243 45.2803ZM107.091 39.0163L106.148 32.7843C105.972 31.4163 105.901 29.0723 105.901 29.0723H105.829C105.829 29.0723 104.854 31.4163 104.119 32.7843L100.795 39.0163H107.091Z" />
    <path
      d="M115.831 45.28H118.276L121.6 28.2H119.115L119.85 24.312H129.181L128.446 28.2H125.93L122.614 45.28H125.099L124.364 49.168H115.064L115.831 45.28Z" />
  </g>
  <g class="year">
    <path
      d="M127.855 46.7842C127.855 37.3682 143.027 36.8802 143.027 30.7522C143.027 29.0002 141.837 28.0882 139.879 28.0882C138.026 28.0882 136.596 28.8962 136.348 30.1922L136.172 31.1362H132.01L132.425 29.0002C133.088 25.5362 136.931 23.8882 140.534 23.8882C144.625 23.8882 147.733 26.0562 147.733 30.2242C147.733 38.9762 133.192 40.7602 133.192 44.7122C133.192 45.1682 133.368 45.2722 134.031 45.2722H141.054C141.581 45.2722 141.861 44.9922 141.964 44.5042L142.276 43.0002H146.438L145.703 46.7842C145.352 48.4642 144.513 49.1682 142.875 49.1682H129.989C128.279 49.1682 127.855 48.2882 127.855 46.7842Z" />
    <path
      d="M161.625 23.896C167.322 23.896 169.319 27.328 169.319 32.264C169.319 38.6 166.523 49.592 157.958 49.592C152.334 49.592 150.305 46.16 150.305 41.192C150.297 34.848 153.093 23.896 161.625 23.896ZM158.054 45.56C162.776 45.56 164.661 37.016 164.661 32.504C164.661 29.736 163.823 27.92 161.514 27.92C156.936 27.92 154.938 36.248 154.938 41.048C154.946 43.744 155.785 45.56 158.054 45.56Z" />
    <path
      d="M170.078 46.7842C170.078 37.3682 185.25 36.8802 185.25 30.7522C185.25 29.0002 184.059 28.0882 182.102 28.0882C180.248 28.0882 178.818 28.8962 178.571 30.1922L178.395 31.1362H174.233L174.648 29.0002C175.311 25.5362 179.154 23.8882 182.757 23.8882C186.848 23.8882 189.955 26.0562 189.955 30.2242C189.955 38.9762 175.415 40.7602 175.415 44.7122C175.415 45.1682 175.591 45.2722 176.254 45.2722H183.276C183.804 45.2722 184.083 44.9922 184.187 44.5042L184.499 43.0002H188.661L187.926 46.7842C187.575 48.4642 186.736 49.1682 185.098 49.1682H172.203C170.502 49.1682 170.078 48.2882 170.078 46.7842Z" />
    <path
      d="M190.707 46.7842C190.707 37.3682 205.879 36.8802 205.879 30.7522C205.879 29.0002 204.688 28.0882 202.731 28.0882C200.877 28.0882 199.447 28.8962 199.2 30.1922L199.024 31.1362H194.861L195.277 29.0002C195.94 25.5362 199.783 23.8882 203.386 23.8882C207.476 23.8882 210.584 26.0562 210.584 30.2242C210.584 38.9762 196.044 40.7602 196.044 44.7122C196.044 45.1682 196.22 45.2722 196.883 45.2722H203.905C204.433 45.2722 204.712 44.9922 204.816 44.5042L205.128 43.0002H209.29L208.555 46.7842C208.203 48.4642 207.365 49.1682 205.727 49.1682H192.832C191.122 49.1682 190.707 48.2882 190.707 46.7842Z" />
  </g>
</svg>