<svg viewBox="0 0 16 16">
  <rect x=".5" y=".5" width="15" height="15" rx="7.5" />
  <path
    d="M6.998 8V3.998a.99.99 0 01.076-.387 1.06 1.06 0 01.217-.316c.094-.09.201-.16.322-.211A.929.929 0 018 3.002c.137 0 .266.027.387.082.12.05.226.121.316.21.094.09.166.196.217.317.055.121.082.25.082.387V8a.929.929 0 01-.082.387.997.997 0 01-.217.322 1.06 1.06 0 01-.316.217.99.99 0 01-.387.076.99.99 0 01-.387-.076 1.14 1.14 0 01-.322-.217 1.14 1.14 0 01-.217-.322A.99.99 0 016.998 8zm-.246 4.002c0-.172.033-.334.1-.486a1.282 1.282 0 01.662-.668c.152-.067.314-.1.486-.1s.332.033.48.1a1.281 1.281 0 01.668.668c.067.152.1.314.1.486s-.033.334-.1.486a1.303 1.303 0 01-.668.662 1.19 1.19 0 01-.48.1c-.172 0-.334-.033-.486-.1a1.303 1.303 0 01-.662-.662 1.204 1.204 0 01-.1-.486z"
    fill="white" />
</svg>