<svg viewBox="0 0 20 20">
  <path
    d="M10 2a.5.5 0 01.5.5v1a.5.5 0 01-1 0v-1A.5.5 0 0110 2zm0 12a4 4 0 100-8 4 4 0 000 8zm0-1a3 3 0 110-6 3 3 0 010 6zm7.5-2.5a.5.5 0 000-1h-1a.5.5 0 000 1h1zM10 16a.5.5 0 01.5.5v1a.5.5 0 01-1 0v-1a.5.5 0 01.5-.5zm-6.5-5.5a.5.5 0 000-1H2.463a.5.5 0 000 1H3.5zm.646-6.354a.5.5 0 01.708 0l1 1a.5.5 0 11-.708.708l-1-1a.5.5 0 010-.708zm.708 11.708a.5.5 0 01-.708-.708l1-1a.5.5 0 01.708.708l-1 1zm11-11.708a.5.5 0 00-.708 0l-1 1a.5.5 0 00.708.708l1-1a.5.5 0 000-.708zm-.708 11.708a.5.5 0 00.708-.708l-1-1a.5.5 0 00-.708.708l1 1z"
    fill="currentColor" />
</svg>