<svg viewBox="0 0 24 24">
  <path
    d="M13 13c.931 0 1.715.637 1.937 1.5H13.75c-.172 0-.337.025-.494.07a.495.495 0 00-.166-.062L13 14.5l-9-.001-.1.01a.51.51 0 00-.254.136.506.506 0 00-.136.253l-.01.101V16.5c0 1.009.45 1.722 1.417 2.242.826.445 2.003.714 3.266.753l.317.005.317-.005c1.222-.037 2.362-.29 3.183-.71.01.476.209.905.525 1.215-.095.094-.18.198-.252.312-1.18.5-2.564.688-3.773.688-2.722 0-6.335-.956-6.495-4.27L2 16.5v-1.501c0-1.054.816-1.918 1.85-1.995L4 13 13 13zm2.949 1.5a2.957 2.957 0 00-.595-1.34L15.22 13H20c.986 0 1.806.715 1.97 1.655-.22-.1-.463-.155-.72-.155h-5.301zm5.301 1a.75.75 0 010 1.5h-7.5a.75.75 0 010-1.5h7.5zm0 2.5a.749.749 0 110 1.5h-7.5a.75.75 0 010-1.5h7.5zM8.5 2a4.5 4.5 0 110 9 4.5 4.5 0 010-9zm0 1.5c-1.654 0-3 1.346-3 3s1.346 3 3 3 3-1.346 3-3-1.346-3-3-3zm9 .5a3.5 3.5 0 110 7 3.5 3.5 0 010-7zm0 1.5c-1.103 0-2 .897-2 2s.897 2 2 2 2-.897 2-2-.897-2-2-2zM13 21.25a.75.75 0 01.75-.75h7.5a.75.75 0 010 1.5h-7.5a.75.75 0 01-.75-.75z"
    fill="currentColor" />
</svg>