<svg viewBox="0 0 16 16">
  <rect x=".5" y=".5" width="15" height="15" rx="7.5" />
  <path
    d="M8.006 8.885l-2.93 2.935a.606.606 0 01-.445.182.616.616 0 01-.445-.176.616.616 0 01-.176-.445c0-.176.06-.324.181-.446L7.121 8l-2.93-2.93a.599.599 0 01-.181-.44c0-.085.015-.167.047-.245a.585.585 0 01.129-.2.672.672 0 01.199-.128.567.567 0 01.246-.053c.172 0 .318.06.44.182L8.005 7.12l2.93-2.935a.609.609 0 01.685-.135.546.546 0 01.2.135.614.614 0 01.182.44c-.001.17-.062.317-.183.438L8.885 8l2.935 2.935a.609.609 0 01.135.686.62.62 0 01-.574.381.606.606 0 01-.446-.182l-2.93-2.935z"
    fill="#fff" />
</svg>