<svg viewBox="0 0 152 125" fill="none">
  <path
    d="M111.798 15.185l-1.498-1.5h9.725a.75.75 0 010 1.5h-8.227zM1.7 13.685l-.75.75v6.371a.75.75 0 001.5 0v-5.621h5.477a.75.75 0 000-1.5H1.699zM14.155 13.685a.75.75 0 000 1.5H26.61a.75.75 0 100-1.5H14.155zM126.252 13.685a.75.75 0 000 1.5h12.456a.75.75 0 000-1.5h-12.456zM144.935 13.685a.75.75 0 000 1.5h5.478v5.621a.75.75 0 001.5 0v-6.371l-.75-.75h-6.228zM151.913 27.177a.75.75 0 00-1.5 0V39.92a.75.75 0 001.5 0V27.177zM2.45 27.177a.75.75 0 00-1.5 0V39.92a.75.75 0 001.5 0V27.177zM151.913 46.292a.75.75 0 00-1.5 0v12.743a.75.75 0 001.5 0V46.292zM2.45 46.292a.75.75 0 00-1.5 0v12.743a.75.75 0 001.5 0V46.292zM151.913 65.406a.75.75 0 00-1.5 0V78.15a.75.75 0 001.5 0V65.406zM2.45 65.406a.75.75 0 00-1.5 0V78.15a.75.75 0 001.5 0V65.406zM2.45 84.52a.75.75 0 00-1.5 0v12.744a.75.75 0 001.5 0V84.52zM151.913 84.52a.75.75 0 00-1.5 0v12.744a.75.75 0 001.5 0V84.52zM151.913 103.635a.75.75 0 00-1.5 0v5.622h-5.478a.75.75 0 100 1.5h6.228l.75-.75v-6.372zM2.45 103.635a.75.75 0 00-1.5 0v6.372l.75.75h6.227a.75.75 0 000-1.5H2.449v-5.622zM14.155 109.257a.75.75 0 100 1.5H26.61a.75.75 0 000-1.5H14.155zM126.252 109.257a.75.75 0 100 1.5h12.456a.75.75 0 000-1.5h-12.456z"
    fill="#fff" fill-opacity=".06" />
  <path fill-rule="evenodd" clip-rule="evenodd"
    d="M120.523 23.917L101.069 4.446A13.753 13.753 0 0091.342.41H42.005c-7.601 0-13.758 6.162-13.758 13.77v96.393c0 7.608 6.157 13.77 13.758 13.77h68.791c7.602 0 13.758-6.162 13.758-13.77V33.653a13.782 13.782 0 00-4.031-9.736z"
    fill="#fff" fill-opacity=".76" />
  <path
    d="M100.008 5.506h0l19.454 19.471a12.281 12.281 0 013.592 8.676s0 0 0 0v76.921c0 6.781-5.486 12.27-12.258 12.27h-68.79c-6.772 0-12.259-5.489-12.259-12.27V14.182c0-6.781 5.487-12.27 12.258-12.27H91.342c1.61 0 3.203.318 4.69.934l.574-1.383-.574 1.383a12.257 12.257 0 013.976 2.66z"
    stroke="#000" stroke-opacity=".136" stroke-width="3" />
  <path
    d="M102.714 32.222H44.309a1.46 1.46 0 100 2.92h58.405a1.46 1.46 0 000-2.92zM102.714 41.514H44.309a1.46 1.46 0 100 2.92h58.405a1.46 1.46 0 000-2.92zM102.714 50.805H44.309a1.46 1.46 0 100 2.92h58.405a1.46 1.46 0 000-2.92zM102.714 60.097H44.309a1.46 1.46 0 100 2.92h58.405a1.46 1.46 0 000-2.92zM102.714 69.389H44.309a1.46 1.46 0 100 2.92h58.405a1.46 1.46 0 000-2.92zM102.714 78.68H44.309a1.46 1.46 0 100 2.92h58.405a1.46 1.46 0 000-2.92zM102.714 87.972H44.309a1.46 1.46 0 100 2.92h58.405a1.46 1.46 0 000-2.92zM102.714 97.264H44.309a1.46 1.46 0 100 2.92h58.405a1.46 1.46 0 000-2.92zM102.714 106.556H44.309a1.46 1.46 0 100 2.92h58.405a1.46 1.46 0 000-2.92z"
    stroke="#000" stroke-opacity=".136" stroke-width="3" stroke-linecap="round" stroke-linejoin="round" />
  <path
    d="M120.936 108.492a32.9 32.9 0 01-18.487 5.65c-18.255 0-33.052-14.798-33.052-33.052 0-18.255 14.797-33.052 33.052-33.052 18.254 0 33.052 14.798 33.052 33.052 0 7.312-2.375 14.07-6.395 19.544.55.279 1.066.649 1.526 1.109l11.489 11.489a6 6 0 11-8.485 8.486l-11.489-11.49a5.988 5.988 0 01-1.211-1.736z"
    fill="#005C6E" />
  <path
    d="M121.845 108.074a1.001 1.001 0 00-1.469-.411 31.896 31.896 0 01-17.927 5.479c-17.702 0-32.052-14.35-32.052-32.052 0-17.702 14.35-32.052 32.052-32.052 17.701 0 32.052 14.35 32.052 32.052a31.907 31.907 0 01-6.201 18.952 1 1 0 00.353 1.484c.457.232.888.54 1.272.924l11.489 11.489a5 5 0 01-7.071 7.072l-11.489-11.49a4.983 4.983 0 01-1.009-1.447z"
    stroke="#fff" stroke-opacity=".5" stroke-width="2" stroke-linecap="round" stroke-linejoin="round" />
  <path
    d="M102.446 87.592v-1.076c0-3.525 2.178-5.434 4.362-6.9 2.131-1.435 4.268-3.306 4.268-6.758a8.624 8.624 0 00-8.625-8.626c-4.763 0-8.63 3.853-8.63 8.62m8.619 26.9a.77.77 0 00-.775.78.785.785 0 00.229.552.78.78 0 10.546-1.332"
    stroke="#fff" stroke-opacity=".9" stroke-width="6" stroke-linecap="round" stroke-linejoin="round" />
</svg>