<svg viewBox="0 0 521 457">
  <path
    d="M297.577 108.513V67.455l-14.794-23.979-97.971-3.94-39.779 12.809-2.631 49.927 2.631 44.015 18.739 11.825 6.247 31.861 47.67-28.248 47.998-3.613 31.89-17.08v-32.519z"
    fill="#064554" />
  <path fill-rule="evenodd" clip-rule="evenodd"
    d="M176.609 151.042v27.182l44.516-26.282 4.653-.076c18.501-.303 35.151-2.164 47.601-4.056 7.858-1.195 13.316-6.674 14.503-13.553 1.645-9.542 3.046-21.631 3.046-35.064s-1.401-25.522-3.046-35.064c-1.187-6.88-6.645-12.358-14.503-13.552-13.617-2.07-32.238-4.1-52.801-4.1-20.563 0-39.185 2.03-52.801 4.1-7.857 1.194-13.316 6.672-14.502 13.552-1.646 9.542-3.047 21.631-3.047 35.064s1.401 25.522 3.047 35.064c1.03 5.974 5.206 10.762 11.297 12.785l12.037 4zm-40.666-89.896c2.551-14.802 14.327-25.682 29.188-27.941 14.24-2.165 33.776-4.3 55.447-4.3s41.207 2.135 55.446 4.3c14.863 2.259 26.638 13.14 29.19 27.94 1.778 10.317 3.302 23.422 3.302 38.048 0 14.626-1.524 27.731-3.302 38.047-2.552 14.801-14.327 25.682-29.19 27.941-13.027 1.981-30.486 3.936-49.958 4.255l-53.777 31.748c-5.862 3.461-13.267-.761-13.267-7.564v-29.903c-11.902-3.955-20.889-13.771-23.079-26.477-1.779-10.316-3.302-23.421-3.302-38.047 0-14.626 1.523-27.731 3.302-38.047z"
    fill="#064554" />
  <path fill-rule="evenodd" clip-rule="evenodd"
    d="M176.61 73.03c-4.857 0-8.794 3.934-8.794 8.786 0 4.852 3.937 8.786 8.794 8.786h87.938c4.856 0 8.793-3.934 8.793-8.786 0-4.852-3.937-8.786-8.793-8.786H176.61zm0 35.144c-4.857 0-8.794 3.933-8.794 8.786 0 4.852 3.937 8.786 8.794 8.786h35.175c4.857 0 8.794-3.934 8.794-8.786 0-4.853-3.937-8.786-8.794-8.786H176.61z"
    fill="#fff" fill-opacity=".62" />
  <path
    d="M45.889 103.396h52.01m-52.01 35.165h52.01m0-64.803H63.226M97.899 168.2H63.226M97.899 44.119h-8.668m8.668 153.719h-8.668m410.42 96.423h-52.01m52.01 35.164h-52.01m0-64.803h34.674m-34.674 94.442h34.673m-34.673-124.08h8.669m-8.669 153.719h8.669"
    stroke="#fff" stroke-opacity=".5" stroke-width="11" stroke-linecap="round" stroke-linejoin="round" />
  <path
    d="M387.355 369.406c3.137 2.126 5.635 6.137 6.63 9.847.734 2.861 1.145 5.775 1.879 8.635.85 3.185 2.785 5.234 4.643 7.876.632.89 1.275 1.848 1.761 2.865.476.95.363 2.168 1.526 1.978 1.163-.19 1.53-1.689 1.506-2.713-.101-2.621-1.696-4.178-2.926-6.169.194-.032.35-.092.571-.162 1.744 2.319 2.947 5.001 4.269 7.595 1.132 2.213 2.559 5.064 4.405 6.749.731.668 1.798.94 2.73.754.738-.155 1.468-.789 1.357-1.524-.052-.334-.259-.609-.208-.925.034-.212.17-.406.344-.571.417-.513.809-.989 1.227-1.502.782-.95-.255-3.624-.217-4.898.01-.584.16-1.123.207-1.679.116-.954.103-1.921-.04-2.871-.856-5.616-5.73-8.932-9.48-12.466-4.724-4.504-8.038-10.61-9.268-17.159M227.786 202.432c-.415-3.804-.867-7.636-1.308-11.401-.391-3.431-1.125-6.943-1.09-10.409.045-2.098.422-4.18.837-6.236.242-1.239-.352-4.82-.352-4.82s-.485 0-3.241 1.735c-1.091.007-4.909-1.659-5.823-2.229-3.247-1.971-6.068-4.629-8.321-7.687-2.169-2.935-4.419-5.754-6.322-8.903-.133-.219-.228-.408-.442-.511-.363-.214-.823.032-1.142.324-.993 1.087-.691 2.854-.062 4.156.581 1.207 1.965 2.899 1.92 4.345-.061 1.553-1.795 2.556-1.475 4.216.129.63.533 1.113.69 1.704.401 1.545-.966 3.001-1.221 4.585-.327 1.766.734 3.512 1.835 4.873a31.406 31.406 0 008.875 7.63c2.573 1.465 2.586 5.026 2.916 8.056.329 3.03.196 6.067.203 9.149-.004.412.003.89.231 1.298.179.313.441.511.768.697 2.165 1.394 4.797 1.718 7.37 1.88.87.064 1.805.116 2.651-.193.874-.348 2.608-1.351 2.503-2.259z"
    fill="#FFA48C" />
  <path
    d="M288.349 197.813c-2.924 3.185-3.601 7.647-2.772 12 .689 3.656 2.661 7.035 5.54 9.203.411.309.887.608 1.424.658 1.333.056 2.013-1.562 2.374-2.889.598-2.153.598-4.107.939-6.218.339-2.111 1.795-3.857 1.727-6.038-.085-2.076.977-8.143-.597-9.564-1.92-1.742-6.398.804-7.915 2.149-.238.176-.465.418-.72.699z"
    fill="#0A2128" />
  <path
    d="M316.823 185.319s12.821-.74 13.805 23.145c1.091 26.551 11.574 23.35 25.355 46.32 8.055 13.423-3.991 34.254-23.881 31.638-19.889-2.605-37.27-10.664-49.002-9.314-11.733 1.351-9.194-29.751 3.098-38.088 12.291-8.337-9.023-38.472 6.926-49.108 15.949-10.635 23.699-4.593 23.699-4.593z"
    fill="#0A2128" />
  <path
    d="M285.654 224.878a134.16 134.16 0 00-.021 5.075c.115 2.928 4.82 4.044 6.884 4.769.975.32 1.95.64 2.943.855.408.071 1.952-.01 2.213.187 1.149.806 1.43 12.204 2.059 12.204a43.648 43.648 0 0117.018 3.936c-1.287-13.22 3.81-26.902.115-39.627a29.162 29.162 0 00-8.636-13.664c-2.641-2.344-8.379-5.895-11.812-3.45-1.044.753-1.806 1.836-2.465 2.938-4.883 7.923-7.95 17.333-8.298 26.777z"
    fill="#FFA48C" />
  <path
    d="M383.813 298.079c1.438-2.385 1.665-5.313 1.516-8.085-.652-11.9-7.573-22.541-15.919-30.697-8.374-8.178-18.274-14.445-27.198-21.929-2.315-1.949-4.624-4.026-7.386-5.245-2.763-1.217-6.091-1.483-8.643.165-1.801 1.155-2.975 3.117-3.745 5.124-1.69 4.394-1.709 9.24-1.429 13.916.343 5.895 1.131 11.779 2.843 17.351 1.368 4.493 3.861 9.235 8.197 10.56.756 5.274 2.899 10.373 6.219 14.458 3.796 4.683 8.874 8.029 14.239 10.565 4.943 2.341 10.429 4.116 15.753 3.019 3.159-.632 6.043-2.199 8.872-3.81 2.517-1.361 5.138-2.864 6.681-5.392zm-45.518-12.868l-2.517-5.302c.638.139 1.233.335 1.821.661 1.585.926 2.309 3.743.696 4.641z"
    fill="#0A2128" />
  <path
    d="M300.232 247.339c-5.384.503-9.291 5.493-14.668 5.823-6.857.4-14.411-1.381-21.264-2.044-5.575-.528-11.765-1.402-15.296-5.895-.416-.55-.802-1.137-1.408-1.415-.605-.279-1.499-.064-1.665.58-4.334-7.584-7.787-15.688-10.319-24.046-.737-2.449-7.336-23.813-6.959-23.944-4.882 1.415-9.903 2.132-14.951 2.237-.034 2.164-.555 4.613-.589 6.777-.069 4.979-.1 9.987.321 14.921 1.141 13.347 5.654 26.452 13.38 37.182 11.036 15.295 29.032 24.347 46.997 28.642-.878 5.317.679 10.751 3.122 15.491 3.794 7.295 8.049 12.631 9.296 21.027 1.104 7.46.631 15.212-1.44 22.471-.194.683-.416 1.404-.368 2.151a4.51 4.51 0 00.353 1.449c1.19 3.027 3.736 5.181 6.224 7.172 11.094 8.947 25.188 16.067 38.66 20.411 11.306 3.601 23.632 4.775 34.986 1.31-8.78-8.742-10.583-21.878-13.678-33.502-3.174-11.919-11.165-21.783-13.003-34.057-.398-2.608-.567-5.458.929-7.587 6.27 11.173 20.884 13.892 28.62 24.037 4.967 6.521 6.281 15.147 8.677 23.047 2.28 7.576 5.767 14.818 10.553 21.026 5.323.399 10.912-1.371 14.621-5.266-3.03-12.285-7.034-23.999-10.065-36.284-.784-3.196-1.617-6.486-3.422-9.206-2.097-3.119-5.272-5.272-8.117-7.651-7.328-6.169-12.58-14.563-18.542-22.189-7.487-9.604-16.172-18.156-25.846-25.381-3.739-2.817-7.652-5.466-11.554-8.05a724.473 724.473 0 01-8.413-5.684c-1.139-.739-2.25-1.517-3.498-2.101-3.797-1.675-7.526-1.82-11.674-1.452z"
    fill="#064554" />
  <path
    d="M394.458 53.25c-23.499 11.647-54.689-3.329-54.689-3.329s6.932-33.853 30.444-45.483c23.5-11.646 54.677 3.312 54.677 3.312s-6.931 33.852-30.432 45.5zM163.056 388.771c30.705 18.386 74.758 1.389 74.758 1.389s-5.761-46.801-36.484-65.166c-30.705-18.387-74.739-1.41-74.739-1.41s5.76 46.8 36.465 65.187z"
    fill="#fff" fill-opacity=".62" />
  <path
    d="M374.679 82.153c-7.087 0-12.832 5.74-12.832 12.82 0 7.081 5.745 12.82 12.832 12.82 7.087 0 12.832-5.739 12.832-12.82 0-7.08-5.745-12.82-12.832-12.82zM188.991 221.355c-7.973 0-14.435 6.457-14.435 14.422 0 7.966 6.462 14.423 14.435 14.423 7.972 0 14.435-6.457 14.435-14.423 0-7.965-6.463-14.422-14.435-14.422zM75.88 257.084c-6.644 0-12.03-5.381-12.03-12.019 0-6.637 5.386-12.018 12.03-12.018 6.644 0 12.03 5.381 12.03 12.018 0 6.638-5.386 12.019-12.03 12.019zM471.005 179.325a5.611 5.611 0 01-5.614-5.608 5.612 5.612 0 015.614-5.609 5.61 5.61 0 015.613 5.609 5.61 5.61 0 01-5.613 5.608z"
    fill="#064554" />
  <path
    d="M189.387 438.877a7.215 7.215 0 01-7.218-7.211 7.214 7.214 0 017.218-7.211 7.214 7.214 0 017.217 7.211 7.214 7.214 0 01-7.217 7.211zM92.098 318.256c-5.758 0-10.426-4.664-10.426-10.417s4.668-10.417 10.426-10.417 10.425 4.664 10.425 10.417-4.667 10.417-10.425 10.417zM149.988 273.268c-4.382 0-7.935-3.55-7.935-7.928 0-4.379 3.553-7.928 7.935-7.928s7.935 3.549 7.935 7.928c0 4.378-3.553 7.928-7.935 7.928zM403.407 200.95c-4.872 0-8.822-3.947-8.822-8.814 0-4.868 3.95-8.814 8.822-8.814 4.872 0 8.822 3.946 8.822 8.814 0 4.867-3.95 8.814-8.822 8.814zM35.073 197.741c1.132 4.222-1.376 8.562-5.602 9.694-4.226 1.131-8.57-1.375-9.702-5.597-1.132-4.222 1.376-8.562 5.602-9.694 4.226-1.131 8.57 1.375 9.702 5.597zM335.182 142.118c-5.82 0-10.538-4.714-10.538-10.529 0-5.815 4.718-10.529 10.538-10.529s10.539 4.714 10.539 10.529c0 5.815-4.719 10.529-10.539 10.529zM374.522 420.679c-4.477 0-8.107-2.901-8.107-6.48 0-3.578 3.63-6.479 8.107-6.479 4.477 0 8.107 2.901 8.107 6.479 0 3.579-3.63 6.48-8.107 6.48zM432.291 117.224c2.356 8.787-2.863 17.819-11.658 20.173-8.795 2.355-17.835-2.86-20.191-11.647-2.357-8.787 2.862-17.819 11.657-20.173 8.795-2.355 17.835 2.86 20.192 11.647zM276.546 365.122h.212c1.256 17.778 14.488 18.051 14.488 18.051s-14.592.285-14.592 20.826c0-20.541-14.591-20.826-14.591-20.826s13.227-.273 14.483-18.051zM99.852 393.333h.188c1.114 16.089 12.856 16.337 12.856 16.337s-12.948.258-12.948 18.849c0-18.591-12.947-18.849-12.947-18.849s11.737-.248 12.85-16.337z"
    fill="#000" fill-opacity=".136" />
</svg>